
<svg width="15" height="16" viewBox="0 0 15 16" fill="none" xmlns="http://www.w3.org/2000/svg">
<path d="M14.8852 12.5881C14.8632 12.5566 14.7877 12.4493 14.7407 12.39C14.531 12.1252 14.04 11.5049 13.3567 10.9574C12.4806 10.2553 11.5791 9.89935 10.6772 9.89935C9.77523 9.89935 8.87369 10.2553 7.99768 10.9573C7.31432 11.5049 6.82327 12.1251 6.61382 12.3897C6.56675 12.4491 6.49114 12.5566 6.46909 12.5881C6.31729 12.805 6.31726 13.0942 6.46903 13.3111C6.49111 13.3427 6.56671 13.4502 6.61363 13.5093C6.82327 13.7742 7.31432 14.3944 7.99765 14.942C8.87369 15.644 9.77523 16 10.6772 16C11.5791 16 12.4806 15.644 13.3567 14.942C14.04 14.3944 14.5311 13.7742 14.7408 13.5093C14.7877 13.45 14.8632 13.3427 14.8852 13.3112C15.0371 13.0943 15.0371 12.805 14.8852 12.5881ZM10.6772 14.7421C9.74685 14.7421 8.77172 14.1395 7.77576 12.9497C8.77166 11.7599 9.74679 11.1572 10.6772 11.1572C11.6074 11.1572 12.5827 11.76 13.5786 12.9497C12.5826 14.1394 11.6075 14.7421 10.6772 14.7421Z" fill="#595959"/>
<path d="M10.7094 14.1446C11.3666 14.1446 11.8995 13.6096 11.8995 12.9497C11.8995 12.2897 11.3666 11.7547 10.7094 11.7547C10.0521 11.7547 9.51926 12.2897 9.51926 12.9497C9.51926 13.6096 10.0521 14.1446 10.7094 14.1446Z" fill="#595959"/>
<path fill-rule="evenodd" clip-rule="evenodd" d="M3.20345 3.69392V3.72334V3.92455V4.01815C3.20345 4.36799 3.48473 4.64708 3.82852 4.64708C4.17621 4.64708 4.45358 4.36799 4.45358 4.01815L4.45749 3.92455L4.45358 3.72334L4.45749 3.69392C4.45749 2.35069 5.5826 1.25786 6.96165 1.25786C8.3446 1.25786 9.46972 2.35069 9.46972 3.69392V5.83652H2.14866C0.937595 6.01021 0 7.0609 0 8.32706V13.4843C0 14.8714 1.12511 16 2.50416 16H5.79356C6.14125 16 6.41862 15.7185 6.41862 15.3711C6.41862 15.0237 6.14125 14.7421 5.79356 14.7421H2.50416C2.2932 14.7421 2.09396 14.6886 1.91816 14.5944C1.84394 14.5543 1.77362 14.5068 1.70721 14.4529C1.63689 14.3941 1.57438 14.3276 1.51578 14.2547C1.3517 14.0417 1.25403 13.7743 1.25403 13.4843V8.32706C1.25403 7.63345 1.81659 7.0692 2.50416 7.0692H11.5246C12.2161 7.0692 12.7786 7.63345 12.7786 8.32706V8.98743C12.7786 9.19263 12.8763 9.3748 13.0287 9.48959C13.1342 9.56919 13.2631 9.61636 13.4037 9.61636C13.5834 9.61636 13.7436 9.54137 13.8569 9.42105C13.9663 9.30822 14.0288 9.15554 14.0288 8.98743V8.32706C14.0288 7.0609 13.0951 6.01021 11.8801 5.83652H10.7198V3.69392C10.7198 1.65708 9.03608 0 6.96165 0C4.89112 0 3.20345 1.65708 3.20345 3.69392Z" fill="#595959"/>
</svg>
